<svg xmlns="http://www.w3.org/2000/svg" xmlns:xlink="http://www.w3.org/1999/xlink" id="Selected_Items" width="282.273" height="373.476" x="0" y="0" enable-background="new 0 0 282.273 373.476" version="1.1" viewBox="0 0 282.273 373.476" xml:space="preserve"><path fill-rule="evenodd" d="M263.873,3.215C266.015,1.071,268.576,0,271.553,0c1.847,0,3.544,0.447,5.092,1.34	c0.833,0.416,1.668,1.042,2.501,1.875c2.083,2.084,3.127,4.616,3.127,7.593c0,2.918-1.044,5.449-3.127,7.593	c-0.774,0.714-1.549,1.311-2.322,1.787c-1.549,0.893-3.305,1.34-5.271,1.34c-2.978,0-5.538-1.042-7.681-3.126	c-2.086-2.144-3.127-4.675-3.127-7.593C260.746,7.831,261.787,5.299,263.873,3.215z" clip-rule="evenodd"/><path fill-rule="evenodd" d="M280.129,57.258c-15.245,0-28.257-5.389-39.036-16.167	c-9.111-9.111-14.353-19.801-15.723-32.069c-0.297-2.322-0.446-4.675-0.446-7.057c0-0.629,0.015-1.254,0.046-1.876h5.852	c0.021,2.075,0.17,4.1,0.446,6.074c1.248,11.494,6.161,21.498,14.738,30.014c9.979,10.039,22.039,15.101,36.178,15.186v5.851	C281.503,57.243,280.818,57.258,280.129,57.258z" clip-rule="evenodd"/><path fill-rule="evenodd" d="M278.966,90.667c-24.296,0-45.019-8.545-62.171-25.638	c-14.529-14.411-22.896-31.323-25.101-50.737c-0.476-3.692-0.715-7.414-0.715-11.166c0-1.013,0.061-1.995,0.179-2.948h9.291	c0,3.276,0.237,6.491,0.714,9.648c1.966,18.163,9.767,33.974,23.404,47.432c15.959,15.961,35.163,23.971,57.616,24.03v9.379	C281.17,90.667,280.1,90.667,278.966,90.667z" clip-rule="evenodd"/><path fill-rule="evenodd" d="M282.003,116.168v12.374c-1.566,0.059-3.144,0.089-4.733,0.089	c-34.183,0-63.361-12.089-87.539-36.266c-20.427-20.427-32.189-44.397-35.284-71.91c-0.656-5.18-0.984-10.451-0.984-15.811	c0-1.528,0.031-3.047,0.091-4.556h12.282c-0.091,1.859-0.134,3.734-0.134,5.627c0,4.824,0.326,9.528,0.981,14.114	c2.68,24.535,13.16,45.885,31.442,64.048c21.5,21.616,47.523,32.425,78.073,32.425C278.152,116.303,280.088,116.26,282.003,116.168z" clip-rule="evenodd"/><path fill-rule="evenodd" d="M282.273,151.945v219.744c0,1.191-0.598,1.786-1.786,1.786H1.787	c-1.192,0-1.787-0.595-1.787-1.786V1.875c0-1.191,0.595-1.787,1.787-1.787h128.63v14.292H14.202v344.801H267.98V151.945H282.273z" clip-rule="evenodd"/></svg>